<svg version="1.2" xmlns="http://www.w3.org/2000/svg" viewBox="0 0 700 388" width="700" height="388"><style>.a{fill:#ec3e41}.b{fill:#01a4e2}.c{fill:#482b2c}.d{fill:#492c2d}.e{fill:#482a2b}.f{fill:#fefdfe}.g{fill:#482b2d}.h{fill:#fbfaf9}.i{fill:#20a4d5}.j{fill:#ccf7fd}.k{fill:#defcfe}.l{fill:#d2f7fd}.m{fill:#caf4fc}</style><path class="a" d="m14 62c35.5-0.1 35.5-0.1 71.8-0.2 7.5 0 14.9 0 22.6-0.1 9.2 0 9.2 0 13.5 0q4.4 0 8.9 0c41.3-0.2 77.6 7.5 108.2 37.3 1 0.9 1 0.9 2 1.9 13.1 12.4 23.8 29.1 30 46.1q0 1.5 0 3c-55.8 0-111.5 0-169 0 0 58.1 0 116.2 0 176-29 0-58.1 0-88 0 0-87.1 0-174.2 0-264z"/><path class="b" d="m102 150c55.8 0 111.5 0 169 0 6.4 14.3 7.6 27.7 7.5 43.1q0 1.2 0 2.5c-0.1 13.3-1.3 25.7-5.5 38.4q-0.6 1.8-1.2 3.6c-1.1 3.3-2.4 6.3-3.8 9.4q-0.4 0.9-0.8 1.8c-14.2 31.5-41 56.6-73.2 69-30 10.7-59.8 8.2-92 8.2 0-58.1 0-116.2 0-176z"/><path class="c" d="m332 150c15.9-0.2 15.9-0.2 32.2-0.3 3.3-0.1 6.6-0.1 10.1-0.2q4 0 8 0 1 0 2 0c15.1-0.3 29.3 4.2 40.4 14.8 12.4 13.3 16 27 15.6 44.8-0.5 11.7-5.9 21.1-13.3 29.9q-0.8 1-1.6 2c-7.2 7.9-17.1 12.7-27.4 15q-1.1 0.3-2.3 0.5c-3 0.5-5.8 0.6-8.9 0.6q-1.8 0-3.7 0c-2 0-2 0-3.9 0q-1.8 0-3.7 0-6.6 0-13.3 0c-15-0.1-15-0.1-30.2-0.1 0-35.3 0-70.6 0-107z"/><path class="d" d="m578 150c10.4-0.1 20.8-0.2 31.6-0.4 4.8-0.1 4.8-0.1 9.8-0.1q4-0.1 7.9-0.1 1 0 2 0c15.3-0.4 27.4 4.1 38.7 14.6q1 0.8 2 1.7c8.9 8.3 14.2 19.7 15.3 31.9 0.2 3.8 0.2 7.6 0.1 11.5q0 2 0 4.1-0.1 5.5-0.1 10.9-0.1 5.6-0.1 11.1-0.1 10.9-0.2 21.8c-11.5 0-23.1 0-35 0 0-4.3-0.1-8.5-0.1-12.9q0-5.1-0.1-10.2 0-5.4-0.1-10.8 0-5.2-0.1-10.4 0-2.9 0-5.9c-0.1-8.7-0.1-8.7-4.6-15.8-10.4-9.1-12.7-5.2-32-6 0 23.8 0 47.5 0 72-11.5 0-23.1 0-35 0 0-35.3 0-70.6 0-107z"/><path class="c" d="m454 150c15.1-0.1 15.1-0.1 30.4-0.1 3.2 0 6.3-0.1 9.6-0.1q3.8 0 7.6 0 1.9 0 3.9 0c15.4 0 29.2 4.1 40.5 15 8.8 9.7 15.3 21.6 15.2 34.9q0 1.9 0 3.9 0 2 0 4.1 0 2.1 0 4.3 0 5.6-0.1 11.1 0 6.8 0 13.5 0 10.2-0.1 20.4c-11.2 0-22.4 0-34 0 0-4.1-0.1-8.2-0.1-12.5q-0.1-4.9-0.1-9.9-0.1-5.2-0.1-10.4-0.1-5.9-0.2-11.9 0-1.9 0-3.8c-0.1-7.5-0.8-12.3-5.8-18.2-9.9-8.5-16.8-5.7-31.7-6.3 0 24.1 0 48.2 0 73-11.6 0-23.1 0-35 0 0-35.3 0-70.6 0-107z"/><path class="e" d="m14 238c29 0 58.1 0 88 0 0 29 0 58.1 0 88-29 0-58.1 0-88 0 0-29 0-58.1 0-88z"/><path class="f" d="m102 150c29.4 0 58.7 0 89 0 0.1 8 0.1 16.1 0.2 24.4 0 3.8 0 3.8 0.1 7.6q0 3 0 6.1c0 1.5 0 1.5 0 3.1 0 14.3-5.2 25.2-14.9 35.6-9.5 8.9-22.2 11.8-34.8 11.6q-1.6 0-3.1 0-5.6-0.1-11.2-0.1c-8.3-0.1-16.7-0.2-25.3-0.3 0-29 0-58.1 0-88z"/><path class="g" d="m191 70c18.1 3.6 35 16.3 48 29q1 0.9 2 1.9c13.1 12.4 23.8 29.1 30 46.1q0 1.5 0 3c-26.4 0-52.8 0-80 0 0-26.4 0-52.8 0-80z"/><path class="h" d="m367 183c3.3 0 6.6-0.1 10-0.1q1.5-0.1 3.1-0.1c8.9 0 15.5 0.9 22.2 7.3 4 4.5 5.4 9.6 5.2 15.5-1.1 5.6-3.8 10.5-8.5 13.8-6.9 3.9-12.9 4.2-20.6 3.9-3.8-0.1-7.5-0.2-11.4-0.3 0-13.2 0-26.4 0-40z"/><path class="i" d="m190 200q0.5 0 1 0c0.4 6.3-0.5 10.1-3.6 15.6q-0.5 1-1 1.9c-2.6 4.6-5.6 7.9-9.4 11.5q-1.5-0.5-3-1 0.9-0.9 1.8-1.7c7.2-7.5 12.5-15.9 14.2-26.3z"/><path class="j" d="m189 200q0.5 0 1 0c-0.3 7.1-3.4 13-7 19q-1 0.5-2 1c0.8-3.9 2.4-7.4 4-11q1 0 2 0 0.2-1.4 0.4-2.8c0.6-3.2 0.6-3.2 1.6-6.2z"/><path class="k" d="m245 282q0.5 1 1 2c-6.3 7.9-6.3 7.9-11 10q-1-0.5-2-1 1-0.9 2.1-1.9 1.4-1.2 2.8-2.5c1.3-1.2 1.3-1.2 2.7-2.4q2.3-2.1 4.4-4.2z"/><path class="l" d="m227 298q1 0.5 2 1c-1 1.5-1 1.5-2 3q-1.5 0-3 0-0.5 1.5-1 3-2-0.5-4-1c2.6-2 5.3-4 8-6z"/><path class="m" d="m272 234q0.5 0 1 0c0.3 7.4 0.3 7.4-2 11q-1 0-2 0 0.5-2.2 0.9-4.4 0.3-1.2 0.6-2.4c0.5-2.2 0.5-2.2 1.5-4.2z"/></svg>